<svg width="80" height="80" viewBox="0 0 80 80" fill="none" xmlns="http://www.w3.org/2000/svg">
<rect width="80" height="80" rx="24" fill="#004DFF"/>
<path d="M24.6851 61.1636C19.6753 61.1636 16.9287 58.439 16.9287 53.4512V26.8643C16.9287 21.8765 19.6753 19.1519 24.6851 19.1519H55.293C60.3247 19.1519 63.0493 21.8765 63.0493 26.8643V38.8174C62.1484 38.6196 61.2036 38.5098 60.2368 38.5098C59.27 38.5098 58.3252 38.6196 57.3804 38.8174V33.4341C57.3804 31.6982 56.5015 30.9072 54.8755 30.9072H25.1025C23.4546 30.9072 22.5977 31.6982 22.5977 33.4341V52.9678C22.5977 54.7036 23.4546 55.4946 25.1025 55.4946H45.625C45.8228 57.5381 46.5479 59.4937 47.6245 61.1636H24.6851ZM35.8472 38.0264C35.0562 38.0264 34.7705 37.7847 34.7705 36.9717V35.6753C34.7705 34.8843 35.0562 34.6206 35.8472 34.6206H37.1436C37.9565 34.6206 38.2422 34.8843 38.2422 35.6753V36.9717C38.2422 37.7847 37.9565 38.0264 37.1436 38.0264H35.8472ZM42.8345 38.0264C42.0215 38.0264 41.7578 37.7847 41.7578 36.9717V35.6753C41.7578 34.8843 42.0215 34.6206 42.8345 34.6206H44.1309C44.9438 34.6206 45.2075 34.8843 45.2075 35.6753V36.9717C45.2075 37.7847 44.9438 38.0264 44.1309 38.0264H42.8345ZM49.8218 38.0264C49.0088 38.0264 48.7231 37.7847 48.7231 36.9717V35.6753C48.7231 34.8843 49.0088 34.6206 49.8218 34.6206H51.1182C51.9092 34.6206 52.1948 34.8843 52.1948 35.6753V36.9717C52.1948 37.7847 51.9092 38.0264 51.1182 38.0264H49.8218ZM28.8599 44.9038C28.0688 44.9038 27.7832 44.6621 27.7832 43.8491V42.5527C27.7832 41.7617 28.0688 41.498 28.8599 41.498H30.1562C30.9692 41.498 31.2549 41.7617 31.2549 42.5527V43.8491C31.2549 44.6621 30.9692 44.9038 30.1562 44.9038H28.8599ZM35.8472 44.9038C35.0562 44.9038 34.7705 44.6621 34.7705 43.8491V42.5527C34.7705 41.7617 35.0562 41.498 35.8472 41.498H37.1436C37.9565 41.498 38.2422 41.7617 38.2422 42.5527V43.8491C38.2422 44.6621 37.9565 44.9038 37.1436 44.9038H35.8472ZM42.8345 44.9038C42.0215 44.9038 41.7578 44.6621 41.7578 43.8491V42.5527C41.7578 41.7617 42.0215 41.498 42.8345 41.498H44.1309C44.9438 41.498 45.2075 41.7617 45.2075 42.5527V43.8491C45.2075 44.6621 44.9438 44.9038 44.1309 44.9038H42.8345ZM60.2588 64.9429C53.9087 64.9429 48.6792 59.7134 48.6792 53.3633C48.6792 47.0352 53.9087 41.8057 60.2588 41.8057C66.5869 41.8057 71.8164 47.0352 71.8164 53.3633C71.8164 59.6914 66.543 64.9429 60.2588 64.9429ZM60.2588 60.856C61.3135 60.856 62.0166 60.1528 62.0166 59.0981V55.1431H65.9497C67.0044 55.1431 67.7075 54.4399 67.7075 53.3853C67.7075 52.3086 67.0044 51.6274 65.9497 51.6274H62.0166V47.6943C62.0166 46.6177 61.3135 45.9365 60.2588 45.9365C59.1821 45.9365 58.479 46.6616 58.479 47.6943V51.6274H54.5459C53.4692 51.6274 52.7881 52.3086 52.7881 53.3853C52.7881 54.4399 53.5132 55.1431 54.5459 55.1431H58.479V59.0981C58.479 60.1528 59.1821 60.856 60.2588 60.856ZM28.8599 51.7812C28.0688 51.7812 27.7832 51.5176 27.7832 50.7266V49.4302C27.7832 48.6172 28.0688 48.3755 28.8599 48.3755H30.1562C30.9692 48.3755 31.2549 48.6172 31.2549 49.4302V50.7266C31.2549 51.5176 30.9692 51.7812 30.1562 51.7812H28.8599ZM35.8472 51.7812C35.0562 51.7812 34.7705 51.5176 34.7705 50.7266V49.4302C34.7705 48.6172 35.0562 48.3755 35.8472 48.3755H37.1436C37.9565 48.3755 38.2422 48.6172 38.2422 49.4302V50.7266C38.2422 51.5176 37.9565 51.7812 37.1436 51.7812H35.8472ZM42.8345 51.7812C42.0215 51.7812 41.7578 51.5176 41.7578 50.7266V49.4302C41.7578 48.6172 42.0215 48.3755 42.8345 48.3755H44.1309C44.9438 48.3755 45.2075 48.6172 45.2075 49.4302V50.7266C45.2075 51.5176 44.9438 51.7812 44.1309 51.7812H42.8345Z" fill="white"/>
</svg>
