<svg width="80" height="80" viewBox="0 0 80 80" fill="none" xmlns="http://www.w3.org/2000/svg">
<rect width="80" height="80" rx="24" fill="#FAC800"/>
<path d="M24.3994 61.9985C23.1689 61.0537 22.9053 59.4937 23.5645 57.5601L27.959 44.5303L16.7749 36.5322C15.083 35.3237 14.3359 33.9175 14.8413 32.4014C15.3467 30.9512 16.7529 30.248 18.8184 30.248H32.5293L36.7041 17.2622C37.3413 15.2627 38.418 14.1421 40 14.1421C41.5601 14.1421 42.6367 15.2627 43.2739 17.2622L47.4487 30.248H61.1377C63.2251 30.248 64.6313 30.9512 65.1367 32.4233C65.6421 33.9175 64.895 35.3237 63.2031 36.5322L52.019 44.5303L56.4136 57.5601C57.0728 59.4937 56.8091 61.0537 55.5786 61.9985C54.3262 62.9653 52.7661 62.6577 51.0522 61.4272L40 53.2754L28.9038 61.4272C27.2119 62.6577 25.6519 62.9653 24.3994 61.9985Z" fill="white"/>
</svg>
