<svg width="80" height="80" viewBox="0 0 80 80" fill="none" xmlns="http://www.w3.org/2000/svg">
<rect width="80" height="80" rx="24" fill="#34C759"/>
<path d="M56.0117 58.249C52.8945 58.249 51.0947 56.4678 51.0947 53.4619V27.7266C51.0947 24.7021 52.8945 22.9209 56.0117 22.9209H60.8545C63.9902 22.9209 65.79 24.7021 65.79 27.708V53.4619C65.79 56.4678 63.9902 58.249 60.8545 58.249H56.0117ZM38.0693 58.249C34.9521 58.249 33.1523 56.4678 33.1523 53.4619V33.126C33.1523 30.1016 34.9521 28.3203 38.0693 28.3203H42.9121C46.0479 28.3203 47.8291 30.1016 47.8291 33.1074V53.4619C47.8291 56.4678 46.0479 58.249 42.9121 58.249H38.0693ZM20.127 58.249C16.9912 58.249 15.21 56.4678 15.21 53.4619V38.5811C15.21 35.5566 16.9912 33.7754 20.127 33.7754H24.9697C28.1055 33.7754 29.8867 35.5566 29.8867 38.5625V53.4619C29.8867 56.4678 28.1055 58.249 24.9697 58.249H20.127Z" fill="white"/>
</svg>
