<svg width="150" height="150" viewBox="0 0 150 150" fill="none" xmlns="http://www.w3.org/2000/svg">
<path d="M75 134.871C73.8281 134.871 72.1875 134.461 70.6641 133.641C37.0312 116.062 25.0195 106.922 25.0195 85.9453V43.3477C25.0195 35.1445 27.7734 31.7461 34.9219 28.7578C40.6055 26.4141 61.5234 19.207 66.9141 17.5664C69.4336 16.8633 72.4805 16.2773 75 16.2773C77.5195 16.2773 80.625 16.8047 83.1445 17.5664C88.4766 19.2656 109.395 26.4141 115.078 28.7578C122.285 31.8047 124.98 35.1445 124.98 43.3477V85.9453C124.98 106.922 113.32 116.648 79.3945 133.641C77.8125 134.402 76.1719 134.871 75 134.871ZM53.2617 95.7891C53.2617 100.652 55.4297 102.879 59.9414 102.879H90.2344C94.6875 102.879 96.8555 100.652 96.8555 95.7891V72.6445C96.8555 68.6016 95.2734 66.4336 92.1094 65.9062V59.5195C92.1094 48.1523 85.1953 40.5352 75.0586 40.5352C64.9219 40.5352 58.0078 48.1523 58.0078 59.5195V65.8477C54.8438 66.4336 53.2617 68.6016 53.2617 72.6445V95.7891ZM66.6797 65.6133V58.9922C66.6797 52.957 69.9609 48.9727 75 48.9727C80.0977 48.9727 83.4375 52.957 83.4375 58.9922V65.6133H66.6797Z" fill="black"/>
</svg>
